<svg width="106" height="106" viewBox="0 0 106 106" fill="none" xmlns="http://www.w3.org/2000/svg">
<circle cx="53" cy="53" r="53" fill="#171717"/>
<path d="M23.3247 70.784C20.4827 70.784 18.0817 70.049 16.1217 68.579C14.1617 67.109 12.659 65.0183 11.6137 62.307C10.601 59.5957 10.0947 56.378 10.0947 52.654C10.0947 48.8973 10.601 45.6633 11.6137 42.952C12.659 40.2407 14.1617 38.15 16.1217 36.68C18.0817 35.1773 20.4827 34.426 23.3247 34.426C26.5914 34.426 29.319 35.504 31.5077 37.66C33.6964 39.816 35.101 42.8703 35.7217 46.823L29.4987 47.117C29.074 44.765 28.3064 42.9847 27.1957 41.776C26.1177 40.5347 24.8274 39.914 23.3247 39.914C21.7894 39.914 20.499 40.4203 19.4537 41.433C18.441 42.413 17.6734 43.8503 17.1507 45.745C16.628 47.6397 16.3667 49.9427 16.3667 52.654C16.3667 55.3327 16.628 57.6193 17.1507 59.514C17.6734 61.4087 18.441 62.846 19.4537 63.826C20.499 64.806 21.7894 65.296 23.3247 65.296C24.8927 65.296 26.2484 64.6427 27.3917 63.336C28.535 61.9967 29.3027 60.053 29.6947 57.505L35.9177 57.75C35.3297 61.866 33.925 65.0673 31.7037 67.354C29.515 69.6407 26.722 70.784 23.3247 70.784ZM52.5096 70.784C48.7529 70.784 45.8129 69.6733 43.6896 67.452C41.5989 65.198 40.5536 62.0293 40.5536 57.946V35.21H46.6296V58.338C46.6296 60.5593 47.1196 62.2743 48.0996 63.483C49.1122 64.6917 50.5822 65.296 52.5096 65.296C54.4369 65.296 55.8906 64.6917 56.8706 63.483C57.8832 62.2743 58.3896 60.5593 58.3896 58.338V35.21H64.4656V57.946C64.4656 62.0293 63.4039 65.198 61.2806 67.452C59.1899 69.6733 56.2662 70.784 52.5096 70.784ZM70.9144 70V64.414H78.8524V40.796H70.9144V35.21H92.8664V40.796H84.9284V64.414H92.8664V70H70.9144Z" fill="white"/>
</svg>
